<?xml version="1.0" standalone="no"?>
<!DOCTYPE svg PUBLIC "-//W3C//DTD SVG 20010904//EN"
 "http://www.w3.org/TR/2001/REC-SVG-20010904/DTD/svg10.dtd">
<svg version="1.0" xmlns="http://www.w3.org/2000/svg"
 width="163.000000pt" height="163.000000pt" viewBox="0 0 163.000000 163.000000"
 preserveAspectRatio="xMidYMid meet">
<metadata>
Created by potrace 1.14, written by Peter Selinger 2001-2017
</metadata>
<g transform="translate(0.000000,163.000000) scale(0.100000,-0.100000)"
fill="#000000" stroke="none">
<path d="M725 1404 c-66 -31 -162 -76 -214 -100 -51 -24 -95 -44 -96 -44 -3 0
-84 -38 -317 -147 l-78 -37 0 -463 0 -463 290 0 c160 0 290 2 290 4 0 6 50
250 75 366 9 41 34 162 56 269 22 107 42 198 45 202 2 5 82 7 177 6 198 -3
223 -11 258 -84 35 -72 17 -196 -39 -273 -35 -47 -47 -57 -112 -87 -47 -23
-69 -27 -153 -27 l-97 -1 -10 -35 c-5 -19 -11 -51 -14 -70 -5 -30 -33 -168
-51 -247 l-5 -23 450 0 450 0 -2 466 -3 465 -55 29 c-30 16 -158 79 -285 141
-126 61 -274 133 -329 160 -54 27 -101 49 -105 49 -3 0 -60 -25 -126 -56z"/>
<path d="M887 903 c-3 -4 -8 -24 -11 -43 -3 -19 -8 -44 -10 -55 -33 -154 -37
-188 -27 -194 23 -14 148 5 180 28 52 37 79 109 72 194 0 10 -13 31 -29 46
-24 25 -35 28 -99 30 -39 1 -73 -2 -76 -6z"/>
</g>
</svg>
